<svg version="1.1" viewBox="0.0 0.0 528.0 288.0" fill="none" stroke="none" stroke-linecap="square" stroke-miterlimit="10" xmlns:xlink="http://www.w3.org/1999/xlink" xmlns="http://www.w3.org/2000/svg"><clipPath id="p.0"><path d="m0 0l528.0 0l0 288.0l-528.0 0l0 -288.0z" clip-rule="nonzero"/></clipPath><g clip-path="url(#p.0)"><path fill="#000000" fill-opacity="0.0" d="m0 0l528.0 0l0 288.0l-528.0 0z" fill-rule="evenodd"/><path fill="#000000" fill-opacity="0.0" d="m236.14961 -89.519684l296.56696 0l0 455.71652l-296.56696 0z" fill-rule="evenodd"/><path fill="#131313" d="m327.22772 207.48657l-3.234375 -67.328125l120.59375 -127.078125l64.796875 0l-108.71875 117.0l-32.390625 34.5625l-41.046875 42.84375zm-52.203125 57.59375l0 -252.0l57.96875 0l0 252.0l-57.96875 0zm172.4375 0l-89.625 -109.796875l38.15625 -41.40625l119.515625 151.20312l-68.046875 0z" fill-rule="nonzero"/><path fill="#000000" fill-opacity="0.0" d="m98.13123 89.821526l231.02362 0l0 229.48032l-231.02362 0z" fill-rule="evenodd"/><path fill="#131313" d="m121.52186 265.22153l0 -121.32814l23.218758 0l51.65625 85.625l-12.3125 0l50.796875 -85.625l23.04686 0l0.34375 121.32814l-26.343735 0l-0.171875 -80.937515l4.84375 0l-40.546875 68.109375l-12.65625 0l-41.421875 -68.109375l5.890625 0l0 80.937515l-26.343758 0z" fill-rule="nonzero"/><path fill="#000000" fill-opacity="0.0" d="m9.160105 86.53543l121.448814 0l0 245.63779l-121.448814 0z" fill-rule="evenodd"/><path fill="#131313" d="m57.73823 276.96982q-13.265625 0 -24.375 -4.9375q-11.093752 -4.953125 -18.187502 -14.09375l16.796875 -20.156265q5.406252 7.09375 11.375002 10.734375q5.984375 3.640625 12.890625 3.640625q18.484371 0 18.484371 -21.65625l0 -62.15625l-45.921875 0l0 -24.265625l75.96875 0l0 84.734375q0 24.265625 -11.953125 36.218765q-11.9375 11.9375 -35.07812 11.9375z" fill-rule="nonzero"/><path fill="#ffffff" d="m9.160105 75.301834l502.89764 0l0 65.07086l-502.89764 0z" fill-rule="evenodd"/><path fill="#000000" fill-opacity="0.0" d="m9.167979 85.59055l502.89764 0l0 39.401573l-502.89764 0z" fill-rule="evenodd"/><path fill="#131313" d="m87.84971 126.16071q-1.734375 0 -3.21875 -0.453125q-1.484375 -0.4375 -2.75 -1.21875q-1.25 -0.78125 -2.234375 -1.875q-0.96875 -1.09375 -1.75 -2.375l2.515625 -1.96875q1.234375 1.96875 3.046875 3.3125q1.828125 1.34375 4.390625 1.34375q2.140625 0 4.234375 -1.03125q2.09375 -1.046875 3.46875 -3.453125q1.375 -2.40625 1.375 -6.4375l0 -25.65625l3.578125 0l0 27.328125q0 3.1875 -1.125 5.546875q-1.109375 2.359375 -2.953125 3.90625q-1.84375 1.53125 -4.09375 2.28125q-2.234375 0.75 -4.484375 0.75zm34.0 0.0625q-4.03125 0 -7.140625 -1.875q-3.109375 -1.875 -4.875 -5.171875q-1.765625 -3.3125 -1.765625 -7.625q0 -4.3125 1.734375 -7.609375q1.734375 -3.3125 4.78125 -5.1875q3.0625 -1.875 6.984375 -1.875q3.96875 0 6.7343826 1.9375q2.78125 1.921875 4.234375 5.3125q1.46875 3.390625 1.46875 7.8125l-23.921883 0l1.296875 -1.0625q0 3.859375 1.28125 6.609375q1.296875 2.75 3.671875 4.203125q2.375 1.453125 5.515625 1.453125q3.25 0 5.515625 -1.59375q2.2656326 -1.59375 3.5625076 -4.125l2.796875 1.734375q-1.0625 2.078125 -2.78125 3.671875q-1.703125 1.59375 -4.0000076 2.5q-2.296875 0.890625 -5.09375 0.890625zm-10.1875 -16.359375l-1.40625 -1.0l21.562508 0l-1.40625 1.0625q0 -2.96875 -1.09375 -5.203125q-1.078125 -2.25 -3.0468826 -3.5q-1.953125 -1.265625 -4.703125 -1.265625q-2.6875 0 -4.953125 1.265625q-2.265625 1.25 -3.609375 3.46875q-1.34375 2.21875 -1.34375 5.171875zm29.892372 0.34375q0 -4.53125 1.703125 -7.328125q1.71875 -2.8125 4.4375 -4.125q2.71875 -1.3125 5.734375 -1.3125l0 3.078125q-2.453125 0 -4.734375 0.875q-2.265625 0.859375 -3.71875 2.90625q-1.453125 2.046875 -1.453125 5.5625l-1.96875 0.34375zm-1.390625 15.34375l0 -28.0l3.359375 0l0 28.0l-3.359375 0zm30.125748 0.671875q-4.03125 0 -7.140625 -1.875q-3.109375 -1.875 -4.875 -5.171875q-1.765625 -3.3125 -1.765625 -7.625q0 -4.3125 1.734375 -7.609375q1.734375 -3.3125 4.78125 -5.1875q3.0625 -1.875 6.984375 -1.875q3.96875 0 6.734375 1.9375q2.78125 1.921875 4.234375 5.3125q1.46875 3.390625 1.46875 7.8125l-23.921875 0l1.296875 -1.0625q0 3.859375 1.28125 6.609375q1.296875 2.75 3.671875 4.203125q2.375 1.453125 5.515625 1.453125q3.25 0 5.515625 -1.59375q2.265625 -1.59375 3.5625 -4.125l2.796875 1.734375q-1.0625 2.078125 -2.78125 3.671875q-1.703125 1.59375 -4.0 2.5q-2.296875 0.890625 -5.09375 0.890625zm-10.1875 -16.359375l-1.40625 -1.0l21.5625 0l-1.40625 1.0625q0 -2.96875 -1.09375 -5.203125q-1.078125 -2.25 -3.046875 -3.5q-1.953125 -1.265625 -4.703125 -1.265625q-2.6875 0 -4.953125 1.265625q-2.265625 1.25 -3.609375 3.46875q-1.34375 2.21875 -1.34375 5.171875zm28.50174 15.6875l0 -28.0l3.140625 0l0.15625 4.03125q1.296875 -2.296875 3.328125 -3.5q2.046875 -1.203125 4.796875 -1.203125q3.296875 0 5.703125 1.59375q2.421875 1.59375 3.484375 4.90625q1.171875 -3.140625 3.4375 -4.8125q2.265625 -1.6875 5.515625 -1.6875q4.59375 0 7.359375 3.140625q2.78125 3.125 2.71875 9.515625l0 16.015625l-3.359375 0l0 -14.34375q0 -4.640625 -0.984375 -7.046875q-0.96875 -2.40625 -2.59375 -3.265625q-1.625 -0.875 -3.703125 -0.875q-3.515625 0 -5.515625 2.9375q-1.984375 2.9375 -1.984375 8.203125l0 14.390625l-3.359375 0l0 -14.34375q0 -4.640625 -0.984375 -7.046875q-0.96875 -2.40625 -2.59375 -3.265625q-1.625 -0.875 -3.703125 -0.875q-3.53125 0 -5.515625 2.9375q-1.984375 2.9375 -1.984375 8.203125l0 14.390625l-3.359375 0zm48.271744 11.874992q-0.90625 0 -2.140625 -0.34375q-1.21875 -0.328125 -2.84375 -1.0l1.234375 -2.859375q1.453125 0.5625 2.453125 0.84375q1.015625 0.28125 1.578125 0.28125q1.625 0 2.65625 -0.90625q1.03125 -0.890625 1.703125 -2.453125l3.203125 -7.6249924l10.90625 -25.8125l3.5312347 0l-13.718735 32.484367q-1.0 2.34375 -2.09375 4.0q-1.09375 1.65625 -2.640625 2.515625q-1.53125 0.875 -3.828125 0.875zm6.890625 -11.874992l-11.828125 -28.0l3.484375 0l10.796875 25.765625l0.953125 2.234375l-3.40625 0zm35.548233 0l0 -39.203125l3.59375 0l14.390625 21.28125l14.328125 -21.28125l3.59375 0l0 39.203125l-3.59375 0l0 -33.265625l-14.390625 21.453125l-14.328125 -21.34375l0 33.15625l-3.59375 0zm63.84601 -14.78125l-2.296875 -2.296875l21.453125 -22.125l4.359375 0l-23.515625 24.421875zm-2.75 14.78125l0 -39.203125l3.359375 0l0 39.203125l-3.359375 0zm22.75 0l-16.296875 -19.9375l2.171875 -2.40625l18.421875 22.34375l-4.296875 0zm9.0061035 0l0 -28.0l3.359375 0l0 28.0l-3.359375 0zm1.734375 -35.28125q-0.890625 0 -1.5625 -0.671875q-0.671875 -0.671875 -0.671875 -1.5625q0 -0.953125 0.671875 -1.59375q0.671875 -0.65625 1.5625 -0.65625q0.953125 0 1.59375 0.65625q0.65625 0.640625 0.65625 1.59375q0 0.890625 -0.65625 1.5625q-0.640625 0.671875 -1.59375 0.671875zm10.366882 35.28125l0 -28.0l3.140625 0l0.21875 5.15625l0 22.84375l-3.359375 0zm20.09375 0l0 -14.34375l3.359375 0l0 14.34375l-3.359375 0zm0 -14.34375q0 -4.640625 -1.09375 -7.046875q-1.078125 -2.40625 -2.953125 -3.265625q-1.875 -0.875 -4.234375 -0.875q-3.96875 0 -6.21875 2.9375q-2.234375 2.9375 -2.234375 8.203125l-2.078125 0q0 -4.484375 1.28125 -7.671875q1.296875 -3.1875 3.78125 -4.890625q2.5 -1.71875 6.078125 -1.71875q3.25 0 5.734375 1.3125q2.5 1.3125 3.921875 4.171875q1.4375 2.859375 1.375 7.5625l0 1.28125l-3.359375 0zm21.617737 26.218742q-2.515625 0 -4.640625 -0.5625q-2.125 -0.5625 -3.59375 -1.203125q-1.453125 -0.640625 -2.015625 -0.921875l1.234375 -2.796875q0.671875 0.390625 2.046875 0.96875q1.375 0.59375 3.1875 1.015625q1.828125 0.421875 3.78125 0.421875q2.921875 0 5.21875 -1.1875q2.296875 -1.171875 3.609375 -3.6875q1.3125 -2.5156174 1.3125 -6.4999924l0 -25.421875l3.359375 0l0 25.421875q0 4.875 -1.828125 8.093742q-1.8125 3.21875 -4.890625 4.78125q-3.078125 1.578125 -6.78125 1.578125zm0.28125 -11.874992q-3.6875 0 -6.546875 -1.84375q-2.859375 -1.859375 -4.484375 -5.125q-1.625 -3.28125 -1.625 -7.484375q0 -4.1875 1.625 -7.375q1.625 -3.203125 4.484375 -5.015625q2.859375 -1.828125 6.546875 -1.828125q3.59375 0 6.296875 1.828125q2.71875 1.8125 4.25 5.015625q1.546875 3.1875 1.546875 7.375q0 4.203125 -1.546875 7.484375q-1.53125 3.265625 -4.25 5.125q-2.703125 1.84375 -6.296875 1.84375zm0.671875 -2.96875q2.6875 0 4.765625 -1.484375q2.078125 -1.484375 3.25 -4.0625q1.171875 -2.578125 1.171875 -5.9375q0 -3.296875 -1.171875 -5.84375q-1.171875 -2.546875 -3.25 -4.0q-2.078125 -1.46875 -4.8125 -1.46875q-2.921875 0 -5.15625 1.46875q-2.234375 1.453125 -3.5 4.0q-1.265625 2.546875 -1.265625 5.84375q0 3.359375 1.28125 5.9375q1.296875 2.578125 3.53125 4.0625q2.25 1.484375 5.15625 1.484375z" fill-rule="nonzero"/></g></svg>